<?xml version="1.0" encoding="UTF-8" standalone="no"?>
<!-- Created with Inkscape (http://www.inkscape.org/) -->

<svg
   xmlns:dc="http://purl.org/dc/elements/1.1/"
   xmlns:cc="http://creativecommons.org/ns#"
   xmlns:rdf="http://www.w3.org/1999/02/22-rdf-syntax-ns#"
   xmlns:svg="http://www.w3.org/2000/svg"
   xmlns="http://www.w3.org/2000/svg"
   xmlns:sodipodi="http://sodipodi.sourceforge.net/DTD/sodipodi-0.dtd"
   xmlns:inkscape="http://www.inkscape.org/namespaces/inkscape"
   version="1.1"
   width="1084.7419"
   height="283.19208"
   id="svg5765"
   inkscape:version="0.48.4 r9939"
   sodipodi:docname="Nintendo_3ds_logo2.svg">
  <sodipodi:namedview
     pagecolor="#ffffff"
     bordercolor="#666666"
     borderopacity="1"
     objecttolerance="10"
     gridtolerance="10"
     guidetolerance="10"
     inkscape:pageopacity="0"
     inkscape:pageshadow="2"
     inkscape:window-width="1920"
     inkscape:window-height="1057"
     id="namedview38"
     showgrid="false"
     inkscape:zoom="0.42870939"
     inkscape:cx="75.959049"
     inkscape:cy="141.91636"
     inkscape:window-x="0"
     inkscape:window-y="0"
     inkscape:window-maximized="1"
     inkscape:current-layer="layer1"
     fit-margin-top="10"
     fit-margin-left="10"
     fit-margin-right="10"
     fit-margin-bottom="10" />
  <defs
     id="defs5767">
    <clipPath
       id="clipPath4439">
      <path
         d="m 76.965,496.958 257.093,0 0,52.963 -257.093,0 0,-52.963 z"
         id="path4441"
         inkscape:connector-curvature="0" />
    </clipPath>
  </defs>
  <metadata
     id="metadata5770">
    <rdf:RDF>
      <cc:Work
         rdf:about="">
        <dc:format>image/svg+xml</dc:format>
        <dc:type
           rdf:resource="http://purl.org/dc/dcmitype/StillImage" />
        <dc:title></dc:title>
      </cc:Work>
    </rdf:RDF>
  </metadata>
  <g
     transform="translate(-1421.6342,-406.45517)"
     id="layer1">
    <g
       id="g3106">
      <g
         id="g4443"
         transform="matrix(9.2625389,0,0,-9.2625389,1557.0397,649.30769)">
        <path
           inkscape:connector-curvature="0"
           style="fill:#a1a2a2;fill-opacity:1;fill-rule:nonzero;stroke:none"
           id="path4445"
           d="m 0,0 c 0,-0.292 -0.241,-0.531 -0.534,-0.531 l -10.189,0 c -0.296,0 -0.533,0.239 -0.533,0.531 l 0,7.37 c 0,0.293 0.237,0.53 0.533,0.53 l 10.189,0 C -0.241,7.9 0,7.663 0,7.37 L 0,0 z m -0.442,10.111 -10.375,0 c -1.502,0 -2.722,-1.229 -2.722,-2.726 l 0,-7.402 c 0,-1.495 1.22,-2.723 2.722,-2.723 l 10.375,0 c 1.502,0 2.725,1.228 2.725,2.723 l 0,7.402 c 0,1.497 -1.223,2.726 -2.725,2.726" />
      </g>
      <g
         id="g4475"
         transform="matrix(9.2625389,0,0,-9.2625389,1557.0397,515.891)">
        <path
           inkscape:connector-curvature="0"
           style="fill:#332d2b;fill-opacity:1;fill-rule:nonzero;stroke:none"
           id="path4477"
           d="m 0,0 c 0,-0.29 -0.241,-0.529 -0.534,-0.529 l -10.189,0 c -0.296,0 -0.533,0.239 -0.533,0.529 l 0,7.37 c 0,0.291 0.237,0.528 0.533,0.528 l 10.189,0 C -0.241,7.898 0,7.661 0,7.37 L 0,0 z m -0.442,10.112 -10.375,0 c -1.502,0 -2.722,-1.23 -2.722,-2.727 l 0,-7.404 c 0,-1.496 1.22,-2.724 2.722,-2.724 l 10.375,0 c 1.502,0 2.725,1.228 2.725,2.724 l 0,7.404 c 0,1.497 -1.223,2.727 -2.725,2.727" />
      </g>
    </g>
    <g
       transform="matrix(1.4394429,0,0,1,1182.8931,297.90714)"
       style="font-size:390.10192871px;font-style:normal;font-variant:normal;font-weight:bold;font-stretch:normal;line-height:125%;letter-spacing:-0.03425154px;word-spacing:0px;fill:#d12228;fill-opacity:1;stroke:none;font-family:Nimbus Sans L;-inkscape-font-specification:Nimbus Sans L Bold"
       id="flowRoot3072">
      <path
         d="m 502.06871,207.77152 c -1.72246,-21.70299 -6.20087,-35.48271 -16.88012,-49.60688 -19.29154,-25.4924 -50.2959,-39.61661 -87.84552,-39.61661 -70.96533,0 -115.06041,50.64044 -115.06041,131.94053 0,80.61111 43.75058,131.25155 113.68244,131.25155 62.35304,0 104.03666,-36.17174 107.13709,-93.70189 l -50.29587,0 c -3.10043,32.03775 -23.4255,50.29587 -55.46325,50.29587 -39.96106,0 -63.38657,-32.38233 -63.38657,-87.15654 0,-55.4632 24.45899,-88.53451 65.10903,-88.53451 17.91358,0 32.72677,6.20087 42.37255,18.25809 5.51187,6.88984 8.26781,13.43521 11.36824,26.87039 l 49.26239,0"
         style="font-size:344.49224854px;letter-spacing:-25.87704086px;fill:#d12228;font-family:Nimbus Sans L;-inkscape-font-specification:Nimbus Sans L Bold"
         id="path3043" />
    </g>
    <g
       transform="matrix(-1,0,0,1,2754.291,551.44138)"
       style="font-size:60px;font-style:normal;font-variant:normal;font-weight:bold;font-stretch:normal;line-height:125%;letter-spacing:0px;word-spacing:0px;fill:#4d4d4d;fill-opacity:1;stroke:none;font-family:Sans;-inkscape-font-specification:Terminal Bold"
       id="flowRoot3082">
      <path
         d="m 290.82227,87.879168 0,6.298829 c -1.11332,-0.722629 -2.21684,-1.249973 -3.31055,-1.582032 -1.07425,-0.351534 -2.168,-0.527315 -3.28125,-0.527343 -2.20706,2.8e-5 -3.93558,0.625028 -5.18555,1.875 -1.23049,1.250025 -1.84573,2.988305 -1.8457,5.214843 -3e-5,2.246115 0.61521,3.984395 1.8457,5.214845 1.23044,1.23048 2.95896,1.84572 5.18555,1.8457 1.24997,2e-5 2.4316,-0.17576 3.54492,-0.52734 1.13278,-0.35155 2.1484,-0.86913 3.04688,-1.55274 l 0,6.24024 c -1.26957,0.4297 -2.54887,0.76173 -3.8379,0.99609 -1.26956,0.21486 -2.50979,0.32228 -3.7207,0.32227 -4.12112,1e-5 -7.4219,-1.14257 -9.90234,-3.42774 -2.48049,-2.28514 -3.72072,-5.32224 -3.72071,-9.111325 -1e-5,-3.808568 1.24022,-6.845674 3.72071,-9.111328 2.48044,-2.285123 5.78122,-3.4277 9.90234,-3.427734 1.34763,3.4e-5 2.64645,0.107456 3.89649,0.322265 1.24996,0.195347 2.47066,0.507846 3.66211,0.9375 m -8.75977,-6.005859 c -2.36331,3.9e-5 -4.56057,0.429726 -6.5918,1.289063 -2.03127,0.83988 -3.8965,2.10941 -5.5957,3.808593 -1.69923,1.699251 -2.97853,3.564484 -3.83789,5.595703 -0.83986,2.011745 -1.25978,4.209009 -1.25977,6.591797 -10e-6,2.363305 0.41991,4.560565 1.25977,6.591795 0.85936,2.01173 2.13866,3.8672 3.83789,5.56641 1.67967,1.67969 3.53513,2.93946 5.56641,3.7793 2.05075,0.83984 4.25778,1.25977 6.62109,1.25976 2.40231,1e-5 4.60934,-0.41015 6.62109,-1.23047 2.01168,-0.83984 3.86715,-2.10936 5.56641,-3.80859 1.69917,-1.69921 2.9687,-3.55468 3.80859,-5.56641 0.85933,-2.03123 1.28902,-4.22849 1.28907,-6.591795 -5e-5,-2.382788 -0.42974,-4.580052 -1.28907,-6.591797 -0.83989,-2.031219 -2.10942,-3.896452 -3.80859,-5.595703 -1.71879,-1.718714 -3.59379,-2.99801 -5.625,-3.83789 -2.01175,-0.839806 -4.19925,-1.259727 -6.5625,-1.259766 m 0,-4.511719 c 2.96872,4.4e-5 5.73239,0.537153 8.29102,1.611328 2.57808,1.07426 4.93159,2.675821 7.06054,4.804688 2.12886,2.128941 3.72066,4.472689 4.77539,7.03125 1.05464,2.558621 1.58198,5.341822 1.58203,8.349609 -5e-5,2.968765 -0.52739,5.732435 -1.58203,8.291015 -1.05473,2.53907 -2.64653,4.87306 -4.77539,7.00195 -2.12895,2.12891 -4.48246,3.73048 -7.06054,4.80469 -2.55863,1.07422 -5.3223,1.61133 -8.29102,1.61133 -2.96878,0 -5.74221,-0.53711 -8.32031,-1.61133 -2.55862,-1.07421 -4.90236,-2.67578 -7.03125,-4.80469 -2.12892,-2.12889 -3.72072,-4.46288 -4.77539,-7.00195 -1.0547,-2.55858 -1.58204,-5.32225 -1.58203,-8.291015 -10e-6,-3.007787 0.52733,-5.790988 1.58203,-8.349609 1.05467,-2.558561 2.64647,-4.902309 4.77539,-7.03125 2.12889,-2.128867 4.47263,-3.730428 7.03125,-4.804688 2.5781,-1.074175 5.35153,-1.611284 8.32031,-1.611328"
         style=""
         id="path3089" />
    </g>
    <g
       transform="matrix(1.4394429,0,0,1,1496.5012,301.54823)"
       style="font-size:390.10192871px;font-style:normal;font-variant:normal;font-weight:bold;font-stretch:normal;line-height:125%;letter-spacing:-0.03425154px;word-spacing:0px;fill:#332d2b;fill-opacity:1;stroke:none;font-family:Nimbus Sans L;-inkscape-font-specification:Nimbus Sans L Bold"
       id="flowRoot3072-5">
      <path
         d="m 344.98025,284.2488 64.42005,0 c 46.16191,0 75.78829,-32.72681 75.78829,-83.71161 0,-50.29582 -28.59291,-77.85525 -80.95568,-77.85525 l -110.9265,0 0,251.13485 51.67384,0 0,-89.56799 m 0,-43.06153 0,-75.4438 48.22891,0 c 27.55936,0 40.3056,12.05725 40.3056,37.89415 0,25.4924 -12.74624,37.54965 -40.3056,37.54965 l -48.22891,0"
         style="font-size:344.49224854px;letter-spacing:-25.87704086px;fill:#332d2b;font-family:Nimbus Sans L;-inkscape-font-specification:Nimbus Sans L Bold"
         id="path3046" />
      <path
         d="m 549.21327,284.2488 64.42005,0 c 46.16191,0 75.78829,-32.72681 75.78829,-83.71161 0,-50.29582 -28.59291,-77.85525 -80.95568,-77.85525 l -110.9265,0 0,251.13485 51.67384,0 0,-89.56799 m 0,-43.06153 0,-75.4438 48.22891,0 c 27.55935,0 40.30559,12.05725 40.30559,37.89415 0,25.4924 -12.74624,37.54965 -40.30559,37.54965 l -48.22891,0"
         style="font-size:344.49224854px;letter-spacing:-25.87704086px;fill:#332d2b;font-family:Nimbus Sans L;-inkscape-font-specification:Nimbus Sans L Bold"
         id="path3048" />
    </g>
  </g>
</svg>
