<?xml version="1.0" encoding="utf-8"?>
<!-- Generator: Adobe Illustrator 17.0.0, SVG Export Plug-In . SVG Version: 6.00 Build 0)  -->
<!DOCTYPE svg PUBLIC "-//W3C//DTD SVG 1.1//EN" "http://www.w3.org/Graphics/SVG/1.1/DTD/svg11.dtd">
<svg version="1.1" id="Capa_1" xmlns="http://www.w3.org/2000/svg" xmlns:xlink="http://www.w3.org/1999/xlink" x="0px" y="0px"
	 width="64px" height="64px" viewBox="0 0 64 64" enable-background="new 0 0 64 64" xml:space="preserve">
<path d="M14.04,50.667h36.437c3.584,0,6.501-2.894,6.501-6.448V25.116c0-3.552-2.91-6.441-6.487-6.448l0.05-0.001v-1.002
	c0.035-0.551-0.321-0.998-0.874-0.998h-3.5c-0.553,0-1,0.447-1,1v1h-1.293c-0.534-3.025-3.196-5.334-6.397-5.334H27.04
	c-3.2,0-5.861,2.309-6.396,5.334H14.04c-3.584,0-6.5,2.893-6.5,6.449v19.103C7.54,47.773,10.456,50.667,14.04,50.667z M9.689,25.116
	c0-2.371,1.952-4.299,4.351-4.299h6.5h2.149l0.167-2.15c0.501-1.828,2.178-3.184,4.184-3.184h10.437
	c2.007,0,3.684,1.355,4.185,3.184l0.167,2.15h2.149h6.499c2.4,0,4.352,1.928,4.352,4.299v19.103c0,2.37-1.952,4.299-4.352,4.299
	H14.04c-2.398,0-4.351-1.929-4.351-4.299C9.689,44.219,9.689,25.116,9.689,25.116z M25.778,20.333H38.59
	c0.449,0,0.812-0.363,0.812-0.812s-0.363-0.812-0.812-0.812H25.778c-0.448,0-0.812,0.363-0.812,0.812S25.33,20.333,25.778,20.333z
	 M32.26,46.659c6.689,0,12.132-5.442,12.132-12.132c0-6.689-5.442-12.132-12.132-12.132s-12.132,5.442-12.132,12.132
	S25.57,46.659,32.26,46.659z M32.26,24.426c5.57,0,10.101,4.531,10.101,10.102c0,5.57-4.531,10.102-10.101,10.102
	s-10.102-4.531-10.102-10.102S26.689,24.426,32.26,24.426z M25.866,35.204c0-4.023,3.272-7.295,7.295-7.295
	c0.374,0,0.677-0.303,0.677-0.677s-0.303-0.677-0.677-0.677c-4.768,0-8.648,3.88-8.648,8.648c0,0.374,0.303,0.677,0.677,0.677
	C25.563,35.881,25.866,35.578,25.866,35.204z"/>
</svg>
