<?xml version="1.0" encoding="utf-8"?>
<!-- Generator: Adobe Illustrator 16.0.4, SVG Export Plug-In . SVG Version: 6.00 Build 0)  -->
<!DOCTYPE svg PUBLIC "-//W3C//DTD SVG 1.1//EN" "http://www.w3.org/Graphics/SVG/1.1/DTD/svg11.dtd">
<svg version="1.1" id="Capa_1" xmlns="http://www.w3.org/2000/svg" xmlns:xlink="http://www.w3.org/1999/xlink" x="0px" y="0px"
	 width="512px" height="512px" viewBox="0 0 512 512" enable-background="new 0 0 512 512" xml:space="preserve">
<path d="M359.765,415.765c-6.143,0-12.283-2.343-16.971-7.028c-9.372-9.372-9.372-24.568,0-33.941
	c65.503-65.503,65.503-172.085,0-237.588c-9.372-9.373-9.372-24.569,0-33.941c9.372-9.371,24.569-9.372,33.941,0
	C417.532,144.062,440,198.304,440,256c0,57.695-22.468,111.938-63.265,152.735C372.049,413.422,365.907,415.765,359.765,415.765z
	 M274.51,370.51c-6.143,0-12.283-2.343-16.971-7.029c-9.373-9.373-9.373-24.567,0-33.94c40.55-40.55,40.55-106.529,0-147.078
	c-9.373-9.373-9.373-24.569,0-33.941s24.568-9.372,33.941,0c59.265,59.265,59.265,155.696,0,214.961
	C286.794,368.167,280.652,370.51,274.51,370.51z M200.666,39.334C213.5,26.5,224,30.85,224,49v414c0,18.15-10.5,22.499-23.334,9.665
	L80,352H0V160h80L200.666,39.334z"/>
</svg>
